<?xml version="1.0" encoding="UTF-8" standalone="no"?><!DOCTYPE svg PUBLIC "-//W3C//DTD SVG 1.1//EN" "http://www.w3.org/Graphics/SVG/1.1/DTD/svg11.dtd"><svg width="100%" height="100%" viewBox="0 0 6550 3300" version="1.1" xmlns="http://www.w3.org/2000/svg" xmlns:xlink="http://www.w3.org/1999/xlink" xml:space="preserve" xmlns:serif="http://www.serif.com/" style="fill-rule:evenodd;clip-rule:evenodd;stroke-linejoin:round;stroke-miterlimit:2;"><g><g><g><g><path d="M559.916,3125.64c186.8,0 311.338,-87.455 311.338,-218.647c0,-164.235 -144.399,-190.732 -271.592,-211.97c-99.377,-17.172 -174.895,-30.437 -174.895,-95.361c0,-68.873 76.837,-95.412 174.895,-95.412c66.226,0 145.718,15.937 196.074,45.097c3.957,2.638 7.956,3.957 11.913,3.957c9.292,0 13.249,-10.602 13.249,-29.16c-0,-82.163 -120.548,-111.281 -233.182,-111.281c-160.294,-0 -321.907,62.26 -321.907,215.926c0,151.052 139.098,176.239 266.283,200.064c109.954,19.894 177.516,33.151 177.516,107.325c-0,74.182 -64.916,102.007 -155.001,102.007c-115.247,-0 -201.376,-35.739 -262.326,-82.147c-3.965,-3.957 -7.956,-5.267 -11.913,-5.267c-7.955,-0 -11.946,10.543 -11.946,26.447c0,87.497 145.743,148.422 291.494,148.422Zm688.919,1.311c105.989,0 165.603,-59.623 165.603,-124.505c0,-10.602 -5.292,-17.247 -11.904,-17.247c-3.999,-0 -7.956,2.654 -13.257,6.645c-22.54,21.171 -49.012,34.386 -82.163,34.386c-66.226,0 -96.697,-38.377 -96.697,-119.237l1.31,-352.378c0,-103.334 -82.129,-141.752 -161.613,-136.46c-11.938,1.344 -19.893,7.923 -19.893,19.836l-0,458.433c-0,160.335 96.722,230.527 218.614,230.527Zm503.463,0c112.601,0 184.12,-49.021 184.12,-124.505c0,-10.602 -3.957,-15.903 -10.569,-15.903c-2.646,-0 -6.637,2.646 -11.938,5.301c-30.462,21.171 -68.889,34.386 -108.643,34.386c-90.077,0 -136.477,-58.27 -136.477,-156.278l0.034,-335.197l168.258,-0c60.925,-0 94.042,-37.142 94.042,-74.183c0,-11.946 -7.922,-19.927 -19.868,-19.927l-242.432,0.025l-0,-214.649c-0,-11.879 -7.956,-18.491 -19.902,-19.835c-78.131,-5.293 -161.605,42.409 -161.605,141.761l0,515.368c0,158.991 107.291,263.636 264.98,263.636Zm567.035,-98.066c-83.465,-0 -133.838,-49.013 -133.838,-129.84c0,-87.406 67.579,-125.849 145.751,-125.849c39.754,-0 80.819,9.292 117.927,29.194l0,100.646c0,78.172 -49.046,125.849 -129.84,125.849Zm-10.602,90.144c186.808,-0 315.312,-84.843 315.312,-234.51l-0,-226.545c-0,-144.424 -120.582,-253.059 -308.7,-253.059c-132.494,0 -249.077,49.012 -249.077,128.521c-0,10.61 3.982,17.222 11.938,17.222c3.965,-0 7.956,-1.311 11.913,-3.965c53.011,-27.85 99.377,-50.39 189.454,-50.39c109.987,-0 169.602,63.58 169.602,155.034l0,60.925c-45.064,-17.239 -100.721,-27.816 -158.992,-27.816c-139.106,0 -284.84,59.631 -284.84,215.935c-0,132.494 124.538,218.648 303.39,218.648Zm559.088,-19.919l76.828,-0c33.118,-0 53.011,-19.836 53.011,-52.986l-0.033,-390.788c-0,-95.453 54.355,-152.421 148.398,-152.421c17.247,-0 53.011,6.636 58.312,6.636c10.594,0 15.903,-5.301 15.903,-17.205c0,-47.71 -60.967,-80.794 -137.795,-80.794c-166.948,-0 -267.627,91.363 -267.627,249.077l-0,385.495c-0,33.15 19.885,52.986 53.003,52.986Zm699.529,-70.225c-83.474,-0 -133.83,-49.013 -133.83,-129.84c-0,-87.406 67.57,-125.849 145.743,-125.849c39.762,-0 80.819,9.292 117.927,29.194l-0,100.646c-0,78.172 -49.021,125.849 -129.84,125.849Zm-10.594,90.144c186.808,-0 315.303,-84.843 315.303,-234.51l0,-226.545c0,-144.424 -120.548,-253.059 -308.691,-253.059c-132.503,0 -249.085,49.012 -249.085,128.521c-0,10.61 3.982,17.222 11.938,17.222c3.965,-0 7.947,-1.311 11.912,-3.965c53.011,-27.85 98.042,-50.39 188.152,-50.39c109.946,-0 170.905,63.58 170.905,155.034l-0,60.925c-45.056,-17.239 -100.721,-27.816 -158.992,-27.816c-139.106,0 -284.849,59.631 -284.849,215.935c0,132.494 124.539,218.648 303.407,218.648Zm-2557,-885.052l103.342,100.705c10.602,9.299 21.205,10.61 30.463,-0l99.377,-104.67c10.61,-10.569 10.61,-19.869 -0,-30.429l-103.334,-99.386c-10.603,-10.627 -21.205,-10.627 -30.471,0l-99.377,104.678c-10.594,10.578 -10.594,19.836 -0,29.102" style="fill:#2b2a29;fill-rule:nonzero;"/></g><g><path d="M3647.78,1158.3l-100.262,-96.414l0.885,-0.977l99.377,-104.661c10.61,-10.577 10.61,-19.877 -0,-30.438l-103.334,-99.385c-10.594,-10.619 -21.205,-10.619 -30.471,0l-99.377,104.678c-10.594,10.577 -10.594,19.836 -0,29.102l100.27,97.724l-0.893,0.994l-99.377,104.678c-10.594,10.569 -10.594,19.827 -0,29.093l103.334,100.713c10.61,9.3 21.212,10.602 30.471,-0l99.377,-104.67c10.61,-10.577 10.61,-19.877 -0,-30.437Zm-1889.74,-327.876l-100.262,-96.422l0.885,-0.968l99.377,-104.662c10.602,-10.577 10.602,-19.877 -0,-30.437l-103.334,-99.386c-10.603,-10.618 -21.205,-10.618 -30.471,0l-99.369,104.679c-10.602,10.577 -10.602,19.835 -0,29.101l100.262,97.724l-0.893,0.994l-99.369,104.67c-10.602,10.577 -10.602,19.835 -0,29.102l103.326,100.712c10.61,9.3 21.212,10.602 30.471,0l99.377,-104.67c10.602,-10.577 10.602,-19.868 -0,-30.437Zm3509.53,809.099c-1.194,4.751 -1.586,9.693 -2.196,14.568c-12.339,98.951 26.564,208.388 171.89,220.05c179.536,14.401 268.887,-113.978 337.609,-210.099c8.123,95.529 77.947,182.433 217.095,193.603c184.045,14.768 278.864,-153.807 292.196,-319.878c3.957,-49.388 -3.957,-90.653 -17.732,-116.641c-11.654,-23.525 -34.645,-18.566 -45.79,7.63l-54.964,122.084c-5.736,15.344 -9.083,28.651 3.114,45.431c14.283,19.218 20.394,55.841 9.425,79.792c-30.622,15.637 -64.649,17.406 -111.766,13.625c-136.919,-10.986 -179.069,-104.712 -147.087,-221.862c5.919,-17.606 -1.962,-31.773 -15.444,-32.859c-15.695,-1.252 -25.395,7.005 -37.517,17.323c-58.73,56.283 -181.34,261.006 -363.13,246.422c-139.09,-11.153 -111.541,-131.467 -91.747,-208.93c7.764,-31.774 -15.786,-37.125 -49.021,-35.004c-359.098,39.545 -683.826,272.043 -1125.45,272.043c-198.136,-0 -423.271,-47.276 -542.6,-256.658c-11.262,-20.261 -18.015,-49.546 -24.752,-69.816c-4.533,-22.515 -40.464,-33.042 -65.592,-17.79c-105.179,63.831 -146.077,321.748 -371.203,321.748c-272.427,0 -276.943,-375.986 -299.458,-738.473c-24.761,-405.297 4.516,-803.799 -290.434,-792.554c-177.892,6.771 -254.445,189.121 -254.445,315.22c-0,20.278 9.016,36.023 24.794,36.023c11.253,-0 17.99,-6.737 22.507,-22.515c20.269,-81.045 67.545,-159.868 159.843,-159.868c204.89,-0 204.89,342.251 229.65,675.461c31.523,421.033 4.525,873.581 355.759,873.581c231.888,-0 310.687,-211.635 400.764,-319.703c76.553,182.383 283.697,335.481 637.168,335.481c373.39,0 684.703,-183.819 1022.4,-269.814c5.919,-1.503 11.847,-3.005 17.791,-4.433c4.95,-1.185 9.708,1.369 8.323,6.812Zm-3734.24,208.146c175.988,223.031 546.314,209.047 659.708,-109.587c78.824,-220.651 135.107,-522.363 396.281,-522.363c68.455,-0 100.279,16.938 102.942,51.608l8.682,112.885c2.312,22.49 -9.183,45.823 -34.545,37.391c-13.499,-2.271 -68.096,-12.731 -92.857,-12.731c-175.605,0 -227.405,182.35 -281.451,364.733c-172.959,578.923 -694.604,415.023 -793.347,86.638c-8.949,-29.695 8.014,-42.084 34.587,-8.574Zm242.841,-289.699c-4.492,-42.785 -65.3,-81.07 -135.083,-121.575l-87.506,-50.824c-24.276,51.609 -39.303,105.221 -36.314,156.621c6.737,123.854 193.603,99.068 258.903,15.778Zm-350.6,-614.728c-8.164,161.111 57.978,187.35 162.999,250.596c22.932,-25.145 43.694,-45.807 59.28,-61.401c11.262,-13.508 99.778,-97.482 131.276,-95.211c15.778,-0 27.04,6.737 27.04,20.244c-0,4.516 -2.246,11.245 -6.771,15.77c-24.869,24.877 -114.378,118.594 -146.936,159.091l58.412,35.188c90.085,54.038 162.114,99.06 162.114,222.914c-0,78.799 -27.007,132.828 -63.054,184.595c-58.521,83.324 -146.328,132.862 -243.15,132.862c-105.797,-0 -166.605,-67.57 -171.096,-168.876c-6.287,-112.959 31.664,-214.248 81.545,-297.789l-45.531,-26.438c-141.294,-79.959 -102.383,-286.168 -6.128,-371.545" style="fill:#2b2a29;"/></g></g></g></g></svg>