<?xml version="1.0" encoding="UTF-8" standalone="no"?>
<!DOCTYPE svg PUBLIC "-//W3C//DTD SVG 1.1//EN" "http://www.w3.org/Graphics/SVG/1.1/DTD/svg11.dtd">
<svg width="100%" height="100%" viewBox="0 0 143 71" version="1.1" xmlns="http://www.w3.org/2000/svg" xmlns:xlink="http://www.w3.org/1999/xlink" xml:space="preserve" xmlns:serif="http://www.serif.com/" style="fill-rule:evenodd;clip-rule:evenodd;stroke-linejoin:round;stroke-miterlimit:2;">
    <g transform="matrix(1,0,0,1,-150.416,-45.2675)">
        <g transform="matrix(1,0,0,1,0,-9)">
            <g transform="matrix(0.197872,0,0,0.197872,108.612,11.8414)">
                <g transform="matrix(1,0,0,1,0,170.345)">
                    <path d="M246.5,397.747C268.876,397.747 283.794,387.271 283.794,371.556C283.794,351.883 266.497,348.709 251.261,346.165C239.357,344.108 230.311,342.519 230.311,334.742C230.311,326.492 239.515,323.313 251.261,323.313C259.194,323.313 268.716,325.222 274.748,328.715C275.222,329.031 275.701,329.189 276.175,329.189C277.288,329.189 277.762,327.919 277.762,325.696C277.762,315.854 263.322,312.366 249.83,312.366C230.629,312.366 211.27,319.824 211.27,338.231C211.27,356.325 227.932,359.342 243.167,362.196C256.338,364.579 264.431,366.167 264.431,375.052C264.431,383.938 256.655,387.271 245.864,387.271C232.059,387.271 221.742,382.99 214.441,377.431C213.966,376.957 213.488,376.8 213.014,376.8C212.061,376.8 211.583,378.063 211.583,379.968C211.583,390.449 229.041,397.747 246.5,397.747ZM329.023,397.904C341.719,397.904 348.86,390.762 348.86,382.99C348.86,381.72 348.226,380.924 347.434,380.924C346.955,380.924 346.481,381.242 345.846,381.72C343.146,384.256 339.975,385.839 336.004,385.839C328.071,385.839 324.421,381.242 324.421,371.556L324.578,329.346C324.578,316.968 314.74,312.366 305.219,313C303.789,313.161 302.836,313.949 302.836,315.376L302.836,370.29C302.836,389.496 314.422,397.904 329.023,397.904ZM389.331,397.904C402.819,397.904 411.386,392.032 411.386,382.99C411.386,381.72 410.912,381.085 410.12,381.085C409.803,381.085 409.325,381.402 408.69,381.72C405.041,384.256 400.438,385.839 395.676,385.839C384.886,385.839 379.328,378.859 379.328,367.119L379.332,326.967L399.487,326.967C406.785,326.967 410.752,322.518 410.752,318.081C410.752,316.65 409.803,315.694 408.372,315.694L379.332,315.697L379.332,289.985C379.332,288.562 378.379,287.77 376.948,287.609C367.589,286.975 357.59,292.689 357.59,304.59L357.59,366.324C357.59,385.369 370.442,397.904 389.331,397.904ZM457.254,386.157C447.256,386.157 441.222,380.286 441.222,370.604C441.222,360.134 449.317,355.529 458.681,355.529C463.443,355.529 468.362,356.642 472.807,359.026L472.807,371.082C472.807,380.446 466.932,386.157 457.254,386.157ZM455.984,396.955C478.361,396.955 493.754,386.792 493.754,368.864L493.754,341.727C493.754,324.427 479.31,311.414 456.776,311.414C440.905,311.414 426.94,317.285 426.94,326.809C426.94,328.08 427.417,328.872 428.37,328.872C428.845,328.872 429.323,328.715 429.797,328.397C436.147,325.061 441.701,322.361 452.491,322.361C465.666,322.361 472.807,329.977 472.807,340.932L472.807,348.23C467.409,346.165 460.742,344.898 453.762,344.898C437.099,344.898 419.642,352.041 419.642,370.764C419.642,386.635 434.56,396.955 455.984,396.955ZM522.955,394.569L532.158,394.569C536.125,394.569 538.508,392.193 538.508,388.222L538.504,341.411C538.504,329.977 545.015,323.153 556.28,323.153C558.346,323.153 562.63,323.948 563.265,323.948C564.534,323.948 565.17,323.313 565.17,321.887C565.17,316.172 557.867,312.209 548.664,312.209C528.666,312.209 516.606,323.153 516.606,342.045L516.606,388.222C516.606,392.193 518.988,394.569 522.955,394.569ZM606.749,386.157C596.75,386.157 590.718,380.286 590.718,370.604C590.718,360.134 598.812,355.529 608.176,355.529C612.939,355.529 617.857,356.642 622.302,359.026L622.302,371.082C622.302,380.446 616.43,386.157 606.749,386.157ZM605.48,396.955C627.857,396.955 643.249,386.792 643.249,368.864L643.249,341.727C643.249,324.427 628.809,311.414 606.272,311.414C590.4,311.414 576.435,317.285 576.435,326.809C576.435,328.08 576.912,328.872 577.865,328.872C578.34,328.872 578.817,328.715 579.292,328.397C585.642,325.061 591.036,322.361 601.83,322.361C615,322.361 622.302,329.977 622.302,340.932L622.302,348.23C616.905,346.165 610.237,344.898 603.257,344.898C586.594,344.898 569.136,352.041 569.136,370.764C569.136,386.635 584.054,396.955 605.48,396.955ZM299.186,290.938L311.565,303.001C312.835,304.115 314.105,304.272 315.214,303.001L327.118,290.463C328.389,289.197 328.389,288.083 327.118,286.818L314.74,274.913C313.47,273.64 312.2,273.64 311.09,274.913L299.186,287.452C297.917,288.719 297.917,289.828 299.186,290.938" style="fill:rgb(43,42,41);fill-rule:nonzero;"/>
                </g>
                <g transform="matrix(1,0,0,1,0,-153.793)">
                    <path d="M616.383,486.224L604.373,474.675L604.479,474.558L616.383,462.021C617.654,460.754 617.654,459.64 616.383,458.375L604.005,446.47C602.736,445.198 601.465,445.198 600.355,446.47L588.451,459.009C587.182,460.276 587.182,461.385 588.451,462.495L600.462,474.201L600.355,474.32L588.451,486.859C587.182,488.125 587.182,489.234 588.451,490.344L600.829,502.408C602.1,503.522 603.37,503.678 604.479,502.408L616.383,489.87C617.654,488.603 617.654,487.489 616.383,486.224ZM390.018,446.949L378.008,435.399L378.114,435.283L390.018,422.746C391.288,421.479 391.288,420.365 390.018,419.1L377.64,407.195C376.37,405.923 375.1,405.923 373.99,407.195L362.087,419.734C360.817,421.001 360.817,422.11 362.087,423.22L374.097,434.926L373.99,435.045L362.087,447.583C360.817,448.85 360.817,449.959 362.087,451.069L374.464,463.133C375.735,464.247 377.005,464.403 378.114,463.133L390.018,450.595C391.288,449.328 391.288,448.215 390.018,446.949ZM810.411,543.868C810.268,544.437 810.221,545.029 810.148,545.613C808.67,557.466 813.33,570.575 830.738,571.972C852.244,573.697 862.947,558.319 871.179,546.805C872.152,558.248 880.516,568.658 897.184,569.996C919.23,571.765 930.588,551.572 932.185,531.679C932.659,525.763 931.711,520.82 930.061,517.707C928.665,514.889 925.911,515.483 924.576,518.621L917.992,533.245C917.305,535.083 916.904,536.677 918.365,538.687C920.076,540.989 920.808,545.376 919.494,548.245C915.826,550.118 911.75,550.33 906.106,549.877C889.705,548.561 884.656,537.334 888.487,523.301C889.196,521.192 888.252,519.495 886.637,519.365C884.757,519.215 883.595,520.204 882.143,521.44C875.108,528.182 860.421,552.705 838.645,550.958C821.984,549.622 825.284,535.21 827.655,525.931C828.585,522.125 825.764,521.484 821.783,521.738C778.768,526.475 739.87,554.325 686.969,554.325C663.235,554.325 636.267,548.662 621.973,523.581C620.624,521.154 619.815,517.646 619.008,515.218C618.465,512.521 614.161,511.26 611.151,513.087C598.552,520.733 593.653,551.628 566.686,551.628C534.053,551.628 533.512,506.59 530.815,463.169C527.849,414.62 531.356,366.885 496.025,368.232C474.716,369.043 465.546,390.886 465.546,405.991C465.546,408.42 466.626,410.306 468.516,410.306C469.864,410.306 470.671,409.499 471.212,407.609C473.64,397.901 479.303,388.459 490.359,388.459C514.902,388.459 514.902,429.456 517.868,469.37C521.644,519.804 518.41,574.013 560.483,574.013C588.26,574.013 597.699,548.662 608.489,535.717C617.659,557.564 642.472,575.903 684.813,575.903C729.54,575.903 766.831,553.884 807.283,543.583C807.992,543.403 808.702,543.223 809.414,543.052C810.007,542.91 810.577,543.216 810.411,543.868ZM363.1,568.801C384.181,595.517 428.541,593.842 442.124,555.674C451.566,529.243 458.308,493.102 489.593,493.102C497.793,493.102 501.605,495.131 501.924,499.284L502.964,512.806C503.241,515.5 501.864,518.295 498.826,517.285C497.209,517.013 490.669,515.76 487.703,515.76C466.668,515.76 460.463,537.603 453.989,559.45C433.271,628.797 370.785,609.164 358.957,569.828C357.885,566.271 359.917,564.787 363.1,568.801ZM392.189,534.099C391.651,528.974 384.367,524.388 376.008,519.536L365.526,513.448C362.618,519.63 360.818,526.052 361.176,532.209C361.983,547.045 384.367,544.076 392.189,534.099ZM350.192,460.463C349.214,479.762 357.137,482.905 369.717,490.481C372.464,487.469 374.951,484.994 376.818,483.126C378.167,481.508 388.77,471.449 392.543,471.721C394.433,471.721 395.782,472.528 395.782,474.146C395.782,474.687 395.513,475.493 394.971,476.035C391.992,479.015 381.27,490.241 377.37,495.092L384.367,499.307C395.158,505.78 403.786,511.173 403.786,526.009C403.786,535.448 400.551,541.92 396.233,548.121C389.223,558.102 378.705,564.036 367.107,564.036C354.434,564.036 347.15,555.942 346.612,543.807C345.859,530.276 350.405,518.143 356.38,508.136L350.926,504.969C334.001,495.391 338.662,470.69 350.192,460.463" style="fill:rgb(43,42,41);"/>
                </g>
            </g>
        </g>
    </g>
</svg>
